
<global>
amp_veltrack=0
ampeg_release=0.25
</global>

<group>
group_label=Group_0-45
lpc_hicc1=42
lpc_locc1=0

<region>
hikey=a#3
hivel=127
lokey=a3
loop_end=261652
loop_mode=loop_continuous
loop_start=58063
loop_xfade=24669
lovel=1
lpc=wGU+QnuqoMICW+1Bu7ljwf2n3UHjMSjBL9euQGhBr8Ab5DW/7cc9P0cKGb/JtwE/F6YhQNONkMDZrIhABxu3wIuZd0DgGZVAAmpIwLyzkD8GfeXAogSKQD2IFcBJfzlA
lpc_rms=-32.66
pitch_keycenter=a#3
sample=Clarinet_trill_semitone_PP_A#3.opus
</region>

<region>
hikey=a#4
hivel=127
lokey=a4
loop_end=251649
loop_mode=loop_continuous
loop_start=55843
loop_xfade=23726
lovel=1
lpc=MVmeQt1AEMNkRpNCjga+wWfg6UEQVzrBGFGbQMQ5Nj+/f6G/HVc0wUFw9UCIdivAf50YQW+AhMFQtVFBThfEwPSOjEBKfpzARD4sQaEQKsFQUwtBMcJiwJmmcMC6vIhA
lpc_rms=-24.88
pitch_keycenter=a#4
sample=Clarinet_trill_semitone_PP_A#4.opus
</region>

<region>
hikey=a#5
hivel=127
lokey=a5
loop_end=244013
loop_mode=loop_continuous
loop_start=54149
loop_xfade=23006
lovel=1
lpc=dIQ4QglGt8J0+31CpmqQwSsNdkG78SnBeQ00QLtnOsBOs5RAYnJ6vw8tCUBS8/a+7uEIv0HTOEBMmv6+UK0IQHDyur8Opvw/uOn3vlLvYUDUHb2/CAJOQMqXHsF5nOpA
lpc_rms=-23.57
pitch_keycenter=a#5
sample=Clarinet_trill_semitone_PP_A#5.opus
</region>

<region>
hikey=c4
hivel=127
lokey=b3
loop_end=265913
loop_mode=loop_continuous
loop_start=59009
loop_xfade=25071
lovel=1
lpc=Id7VQp+oM8NoBVNCAp8WwZM+G0JV2o3A+9nTQMnb/8BGmpI/sDXNQPLKXsG3yy1AoEozQN/vOcG9qN9AyMATQD8cIsBTv5RAf6bjQIcHCcAMUuLAxZn8v1dFM8E0HGdB
lpc_rms=-28.41
pitch_keycenter=c4
sample=Clarinet_trill_semitone_PP_C4.opus
</region>

<region>
hikey=c5
hivel=127
lokey=b4
loop_end=265210
loop_mode=loop_continuous
loop_start=58853
loop_xfade=25004
lovel=1
lpc=bE/nQcBgQMLBRCBBWyICQQCq+EDg+1zAohmgP0ZOb8DDxos/FOnrvUt6HMDnb0BAAJY1vRNDzr8NSDW/pzicvzsnmkASfNi+7nYlQABLRsA/tWA/no0+wFTEB8CGgJJA
lpc_rms=-33.65
pitch_keycenter=c5
sample=Clarinet_trill_semitone_PP_C5.opus
</region>

<region>
hikey=c6
hivel=127
lokey=b5
loop_end=269563
loop_mode=loop_continuous
loop_start=59819
loop_xfade=25415
lovel=1
lpc=K2q4QmuwTMP1TCZDfz4dwt6VmkCwIdfBcZcNQvhd58HERA1CESiewUeUkL8RDJNBSOW7wEXh5MDQ535BpBiGwJNoXsDXTVdBZzMHwQTQoUAqGPU/tLs2wTMD8UDN9LZA
lpc_rms=-19.93
pitch_keycenter=c6
sample=Clarinet_trill_semitone_PP_C6.opus
</region>

<region>
hikey=d4
hivel=127
lokey=c#4
loop_end=270845
loop_mode=loop_continuous
loop_start=60103
loop_xfade=25536
lovel=1
lpc=Hy/XQonmPMP0a29CUl1RwODZHEIglnnAdfOkQFYr2sBxjjXAeZ/LwHbEEsAs+ea/ZM64PzoKrL98PRE/2hH1QHqdCr40mt2/6qzmQGw8RMBluorAuNNdwH7IQ8F9M4BB
lpc_rms=-27.21
pitch_keycenter=d4
sample=Clarinet_trill_semitone_PP_D4.opus
</region>

<region>
hikey=d5
hivel=127
lokey=c#5
loop_end=248992
loop_mode=loop_continuous
loop_start=55254
loop_xfade=23475
lovel=1
lpc=59NkQm3G78LASphCd7KgwXlX4UFjXNzBgYGJQW9RMMFp51hAwVMcQD1B6sCFimpA9ZhBQP2DocAloe9AnCsnwDwXFMC2l2dAsuj9v+IbgD/sL7dAUolCwVTYIkCiUKtA
lpc_rms=-30.31
pitch_keycenter=d5
sample=Clarinet_trill_semitone_PP_D5.opus
</region>

<region>
hikey=C7
hivel=127
lokey=c#6
loop_end=268567
loop_mode=loop_continuous
loop_start=59598
loop_xfade=25321
lovel=1
lpc=aBzfQr4/WsPNSS5DHT5hwlRHKcCe/ulBeluTwak9Q0E/O/dA003WwKxtOkEWugdBYiWpwDzvjEB2lTBB+ejbP45iwcA8fK1AzNr8QXF/LMLhUgfAKOXSQaTSB0GbQc7A
lpc_rms=-15.59
pitch_keycenter=D6
sample=Clarinet_trill_semitone_PP_D6.opus
</region>

<region>
hikey=e3
hivel=127
lokey=C#3
loop_end=266677
loop_mode=loop_continuous
loop_start=59178
loop_xfade=25143
lovel=1
lpc=r5cIQfatMcFnvmVAsNxEwJmH4z/XdHs+Zo0NvigtGD7780s/0Fi5vzmDiD8gZdu+vtkYP2bbV792XVg/G8x5v65bPz9tm3K+w35KPg1NiD63Hx+/lUq+vnBquD7+RIg+
lpc_rms=-44.38
pitch_keycenter=e3
sample=Clarinet_trill_semitone_PP_E3.opus
</region>

<region>
hikey=e4
hivel=127
lokey=d#4
loop_end=263016
loop_mode=loop_continuous
loop_start=58366
loop_xfade=24798
lovel=1
lpc=ihdzQlGKpcIdlxhBoBSKwGQMjEEd8iRAMCYEQZJABME7f29ASR/9wHwgRj9ekOS+wBLFQOE1psBmuUvAcFUHP010UkAi0ra/MZv4QKo8JsCPMra/3EWxwJNf178W+OJA
lpc_rms=-28.15
pitch_keycenter=e4
sample=Clarinet_trill_semitone_PP_E4.opus
</region>

<region>
hikey=e5
hivel=127
lokey=d#5
loop_end=262553
loop_mode=loop_continuous
loop_start=58263
loop_xfade=24754
lovel=1
lpc=IufmQfKHJcKOVGBBCSIbwepgXkEVgRlAjICxvyAfLMBqo8M/qclQwJEvykCzC/fADI7MQG/qbr9paM6+ZbyMv5DvkkDuCIXAYrzuQH6218BaZkA/UKAYwO6Zo0CubxA/
lpc_rms=-25.16
pitch_keycenter=e5
sample=Clarinet_trill_semitone_PP_E5.opus
</region>

<region>
hikey=f#3
hivel=127
lokey=f3
loop_end=270778
loop_mode=loop_continuous
loop_start=60088
loop_xfade=25529
lovel=1
lpc=r1MsQlbQnMJgTAxCtisBweIUTUEhgLjAfvUVQFl/cb9MX+4/na/wP6EcocByiXs/3Fc1QMYOOsCnGVnArmstP7xtx0Dn+hE/iR4swO6W878TynW/Ub6GvU7FZz+y658/
lpc_rms=-37.28
pitch_keycenter=f#3
sample=Clarinet_trill_semitone_PP_F#3.opus
</region>

<region>
hikey=f#4
hivel=127
lokey=f4
loop_end=262730
loop_mode=loop_continuous
loop_start=58302
loop_xfade=24771
lovel=1
lpc=pwQUQ2QdbcOotmZCHgElQEPISUJA0GzBwPQyQI6YRUHn3N7AQn5YwQkGm7/eg7pAb6OfwKW8JMFF3I5ARsuDQAmhNUG0/74/qG2vwFk5ZUDCdvLAOZCxP+1ibsEmZpNB
lpc_rms=-25.34
pitch_keycenter=f#4
sample=Clarinet_trill_semitone_PP_F#4.opus
</region>

<region>
hikey=f#5
hivel=127
lokey=f5
loop_end=262523
loop_mode=loop_continuous
loop_start=58256
loop_xfade=24751
lovel=1
lpc=2ThGQibEx8IjMV5Cl2MOwAWSNUG9ANzA4oz4wBMRoj68Y6lAZXllv+iPOz+ua/O//1sfQBIG8r9F+/A/9GC8P8J1N8A/aYC/XU7MQAs/ncBy95NAKQlfwMaX4z9WAdy+
lpc_rms=-27.58
pitch_keycenter=f#5
sample=Clarinet_trill_semitone_PP_F#5.opus
</region>

<region>
hikey=g#3
hivel=127
lokey=g3
loop_end=265304
loop_mode=loop_continuous
loop_start=58873
loop_xfade=25013
lovel=1
lpc=MM4bQoX9dMLGCHZBpzWXQJ5Pm0BYrh3BRYMNQWv+8r2lO0FApXwowMx/MMD1Q1PAUtM8QTIrhcHm81tBQIG2wKlyZ0Ce+92/XTuuwCTlEkFFX87A4ioxQOxansDBrJBA
lpc_rms=-31.07
pitch_keycenter=g#3
sample=Clarinet_trill_semitone_PP_G#3.opus
</region>

<region>
hikey=g#4
hivel=127
lokey=g4
loop_end=271357
loop_mode=loop_continuous
loop_start=60217
loop_xfade=25584
lovel=1
lpc=IfYnQ4qlr8Oi0kND1PkEwRBiakIcgIbCaTp0QZYP48G7phBBMQDjQdroRsGO3GI/kzfewF4wcEAUv4/AFPk0wMDioED6ji1BkuaoQDsWmsHiEL7AHfjjv1rGwUG+YunA
lpc_rms=-22.06
pitch_keycenter=g#4
sample=Clarinet_trill_semitone_PP_G#4.opus
</region>

<region>
hikey=g#5
hivel=127
lokey=g5
loop_end=269142
loop_mode=loop_continuous
loop_start=59725
loop_xfade=25375
lovel=1
lpc=W+VWQjpyucKICyJCcSziwXWJjELqyxzCM0LEQIh4ScHNJAtBV/yowD6DBkFSESu/fGxAQDC8ZMACgTw/ku1MQBqTysDs8Ki/ZzrwQBk5JkGa7NbAuCx2wO5DCcG4mydB
lpc_rms=-21.01
pitch_keycenter=g#5
sample=Clarinet_trill_semitone_PP_G#5.opus
</region>
</group>

<group>
group_label=Group_46-90
lpc_hicc1=84
lpc_locc1=43

<region>
hikey=a#3
hivel=127
lokey=a3
loop_end=276031
loop_mode=loop_continuous
loop_start=61254
loop_xfade=26025
lovel=1
lpc=qIEbQqRqtMIkLlFCaDeIQKfKOkHo3ZbBv/+CQMX2F8FJrrNAGXVBQFEy+T+wIIbAXtdpPkOPCT8tn21Ae1OmwOfZmj8g6w1AWUaHv83DEr3+KEHASjJ1QIBng78Uz0q+
lpc_rms=-25.86
pitch_keycenter=a#3
sample=Clarinet_trill_semitone_MF_A#3.opus
</region>

<region>
hikey=a#4
hivel=127
lokey=a4
loop_end=267023
loop_mode=loop_continuous
loop_start=59255
loop_xfade=25175
lovel=1
lpc=8BmOQigqMMOyyA9DnqIfwnf49kFWkynCWaKpQZ/RAcJKVDFCTMfawddbo0EyXkLBLH0JwBX/y79GIoZAB5CiP8hzHr+nRhBAcOWCv8Z7TcD7pgJAJEbNP/Mkd8Ban2NA
lpc_rms=-24.36
pitch_keycenter=a#4
sample=Clarinet_trill_semitone_MF_A#4.opus
</region>

<region>
hikey=a#5
hivel=127
lokey=a5
loop_end=263491
loop_mode=loop_continuous
loop_start=58471
loop_xfade=24842
lovel=1
lpc=0OmgQlxeTcNPHkVDmGJ6wmQ3o8EiG/JBgDCYwT6DKj+2yFtB1r5+wAMJgUChFR3BcIeDQCnjxkAt8TVAkQwYwT3LZL/T7aVB4ZSEwViLz75X40pBPK64PT75nsFhrWhB
lpc_rms=-21.94
pitch_keycenter=a#5
sample=Clarinet_trill_semitone_MF_A#5.opus
</region>

<region>
hikey=c4
hivel=127
lokey=b3
loop_end=270355
loop_mode=loop_continuous
loop_start=59994
loop_xfade=25490
lovel=1
lpc=HmiZQo1AKcOXoa5C+T4pQHvMHUKpTCHCnb9NQcQGY8EVKiDAjnZXQaSeiMHMwJlBsXEWwaCmjMB8yO5Ak5T6vwol5z97LJo/1QBRQMqjKMF/4oo/1PrJQKnHwsDD1GJA
lpc_rms=-24.76
pitch_keycenter=c4
sample=Clarinet_trill_semitone_MF_C4.opus
</region>

<region>
hikey=c5
hivel=127
lokey=b4
loop_end=271384
loop_mode=loop_continuous
loop_start=60223
loop_xfade=25587
lovel=1
lpc=7xsrQohq+MLWogdDFSl+wqyWdkFrSWbBadSKQR8yjsGd4o9BXDVhwVZDSUH6XwPBJCJIv9xs5D6i6E1A6s9Xv/OsFr6JkfQ/g6KfwOUQlEAU7tC/zYdcQOTF28B9lYFA
lpc_rms=-30.77
pitch_keycenter=c5
sample=Clarinet_trill_semitone_MF_C5.opus
</region>

<region>
hikey=c6
hivel=127
lokey=b5
loop_end=276992
loop_mode=loop_continuous
loop_start=61467
loop_xfade=26115
lovel=1
lpc=GiswQlLqp8LpzYdCud3SwYnp+UD1NlVAvH3XPpZm/MDp2pJBIklewe0ir0CHpiNB9TtvwGO2e8AtSdpAlMi5QDWpFsE+5SFBxxyiPx3oz8AFoTFB0YXFwCnUA8Gkx0FB
lpc_rms=-22.23
pitch_keycenter=c6
sample=Clarinet_trill_semitone_MF_C6.opus
</region>

<region>
hikey=d4
hivel=127
lokey=c#4
loop_end=273700
loop_mode=loop_continuous
loop_start=60737
loop_xfade=25805
lovel=1
lpc=QM2PQt7iQcPptSBDtKS1wXI9UT+LUpLBBTSqwdsVwEELCtZAdjJUwNHErb+Gy9nANyV+wDBLD0H93wY/MG9IP/pVIb/XZarAAJW+QNqFN8EYBpZBxPx7wM2qdcEafB1B
lpc_rms=-21.68
pitch_keycenter=d4
sample=Clarinet_trill_semitone_MF_D4.opus
</region>

<region>
hikey=d5
hivel=127
lokey=c#5
loop_end=271954
loop_mode=loop_continuous
loop_start=60349
loop_xfade=25640
lovel=1
lpc=13U1QtJn8MKxGfVCrURowv4GpEHiQ7DBikazQUwKOMGIrkFBdBpYwW0a8r/zmkFB60NHwFOni8AOXnLAwBpGQVFcDMHy/gZBMR8KwWMjxUDRhsXAzuP/QO/SHcHPvdJA
lpc_rms=-25.35
pitch_keycenter=d5
sample=Clarinet_trill_semitone_MF_D5.opus
</region>

<region>
hikey=C7
hivel=127
lokey=c#6
loop_end=271629
loop_mode=loop_continuous
loop_start=60277
loop_xfade=25610
lovel=1
lpc=eEBhQsP1t8JTqlZC1amRwLMHcMBMfDpBbGIjwQhSGEEC0MFACUKVwB/ZakDICRxBA6W/wMrjvEBaX3tASXpKQEtvA8G15TFBCSW1QHbjpsDsa4LBSWgMQbeQwEE/Z1HB
lpc_rms=-23.03
pitch_keycenter=D6
sample=Clarinet_trill_semitone_MF_D6.opus
</region>

<region>
hikey=e3
hivel=127
lokey=C#3
loop_end=268816
loop_mode=loop_continuous
loop_start=59653
loop_xfade=25344
lovel=1
lpc=Y0PeQb5MgMJS0CpCFpUQwbw3ZkGP3kXBFagiQOBipsD3zGxAAJCqv+GyhkB36pLAfki1QDscGsH1W8BAw/1PP13xhr+WQQxAQKeav2qIGMAg4Co/aq36vwAuo0BBRBfA
lpc_rms=-28.62
pitch_keycenter=e3
sample=Clarinet_trill_semitone_MF_E3.opus
</region>

<region>
hikey=e4
hivel=127
lokey=d#4
loop_end=274208
loop_mode=loop_continuous
loop_start=60849
loop_xfade=25853
lovel=1
lpc=qLdxQmAvEsNFdNlCLrLNwel93kEbZdrB8ewbwPLjQj97M1xA7vo6QN1pk77vZ6w/gtmAwHANmT7Tf1XASZJoQNK2AkB6F5u/9sVhQINavsADtQZARViJQOAIMMEqbO1A
lpc_rms=-25.50
pitch_keycenter=e4
sample=Clarinet_trill_semitone_MF_E4.opus
</region>

<region>
hikey=e5
hivel=127
lokey=d#5
loop_end=272880
loop_mode=loop_continuous
loop_start=60555
loop_xfade=25728
lovel=1
lpc=7QkFQlxue8L+vA9C6ggnwSEhoUGHJ1DBGAvSPHdS5b+/plhAEngsvzYP8T8SbBTADOAYQHKD7z9Vu0XAiWwjP43hRkBBmYnACM9zQBFoHkC7VbXA7X60QOC18MCDV9hA
lpc_rms=-25.61
pitch_keycenter=e5
sample=Clarinet_trill_semitone_MF_E5.opus
</region>

<region>
hikey=f#3
hivel=127
lokey=f3
loop_end=271528
loop_mode=loop_continuous
loop_start=60255
loop_xfade=25600
lovel=1
lpc=QmwjQhHi58IGNNtCB5rlwRudhUBOOcDBD3J5QQY54cDZ1W5BuGP7wG3HIsA45LY/YhVawGGKAECYhjFAiYIXwJ0lekDnGfW/po1awG+zcT/6ePw/AhUqP76bMcCJprE/
lpc_rms=-26.68
pitch_keycenter=f#3
sample=Clarinet_trill_semitone_MF_F#3.opus
</region>

<region>
hikey=f#4
hivel=127
lokey=f4
loop_end=262089
loop_mode=loop_continuous
loop_start=58160
loop_xfade=24710
lovel=1
lpc=b1bZQpqhfsPTqilDOut7wTENmUEjZFXB3GOBwUllFsEt+g9BayayQLRfyUDAx6C/9MU4waxfFUCZVY3AUfMYQWC9lMAi0jxBTXn6wKrgz8BtzylBi4/CP0iBsMGEe4VB
lpc_rms=-24.40
pitch_keycenter=f#4
sample=Clarinet_trill_semitone_MF_F#4.opus
</region>

<region>
hikey=f#5
hivel=127
lokey=f5
loop_end=272131
loop_mode=loop_continuous
loop_start=60388
loop_xfade=25657
lovel=1
lpc=KyhvQrWeIMPbUSVDX1mcwq/MAUIECtLBvugqQcV08cBZ+qZBcTCwwYbYlkG9LVPBt9W3QA1vGsGK0IFBxeM/wRwRCEFsTVLA87PwP2zHf8DxKBtA+kxQwFbZD0FK3Z7A
lpc_rms=-23.07
pitch_keycenter=f#5
sample=Clarinet_trill_semitone_MF_F#5.opus
</region>

<region>
hikey=g#3
hivel=127
lokey=g3
loop_end=272041
loop_mode=loop_continuous
loop_start=60368
loop_xfade=25649
lovel=1
lpc=K24lQsdJvsLYCGlCuciTP1D7IkBG7cXAWe+iP8tpFcEx1RRBfzzRwHSTmUASuqHAosEyQTIXWcFexshAVdmxvUQueTtX5XpAAe36wB6yA0Gs0+HAilhIP+H/GkAhC8u+
lpc_rms=-25.73
pitch_keycenter=g#3
sample=Clarinet_trill_semitone_MF_G#3.opus
</region>

<region>
hikey=g#4
hivel=127
lokey=g4
loop_end=268724
loop_mode=loop_continuous
loop_start=59632
loop_xfade=25336
lovel=1
lpc=lDwLQ6WZrsPC+5BDbC+TwqRdEUKSopXCY+6CQg+shMI6TZNBdNUpQijFLsFDmcHAsK35wTEUiEFnWMm/zfPlQbX8pcGCpKo/9bcfwJa6OcGGBa9BUfcYwQGhF8CYeK5A
lpc_rms=-23.48
pitch_keycenter=g#4
sample=Clarinet_trill_semitone_MF_G#4.opus
</region>

<region>
hikey=g#5
hivel=127
lokey=g5
loop_end=270799
loop_mode=loop_continuous
loop_start=60093
loop_xfade=25531
lovel=1
lpc=fBtmQurK/MJzYstCXdlHwrJdgUJqCYPC3CK2QWUa1kC5LfW/DFEWwNeTHEAy1di/73M1QLYYpcDyZBpBO/z+v5PsTcDRsjtA2rELwBfd3kDScYrAEM6SQEYBysB34o9A
lpc_rms=-19.87
pitch_keycenter=g#5
sample=Clarinet_trill_semitone_MF_G#5.opus
</region>
</group>

<group>
group_label=Group_91-127
lpc_hicc1=127
lpc_locc1=85

<region>
hikey=a#3
hivel=127
lokey=a3
loop_end=272835
loop_mode=loop_continuous
loop_start=60545
loop_xfade=25723
lovel=1
lpc=nGJ8Qe2DG8IV5QFCc2sLwR0UM0DmqrLA7u/DP6la+j5UZ+E/5RmuvhOG8L+8zu0/bVM5v2Kg5L+O7Jg+vKS8P7SB1z9qJ4e/uT37v0X0Er63rzY/LaEfQPX1N8Cn3Go/
lpc_rms=-19.96
pitch_keycenter=a#3
sample=Clarinet_trill_semitone_FF_A#3.opus
</region>

<region>
hikey=a#4
hivel=127
lokey=a4
loop_end=272036
loop_mode=loop_continuous
loop_start=60367
loop_xfade=25648
lovel=1
lpc=tdGwQVaUUsJPsjlC3g5RwR2sbD+/yQnBSPsTQfJX8cCvZFBBqN9SwQc9hkBpDJG/7l6IQJx5LsCh4ifAyMFgQOjmhb97QOg+Zjy8P9YCQsB9Le0/zmMjQAIUpMA6uVRA
lpc_rms=-14.43
pitch_keycenter=a#4
sample=Clarinet_trill_semitone_FF_A#4.opus
</region>

<region>
hikey=a#5
hivel=127
lokey=a5
loop_end=262122
loop_mode=loop_continuous
loop_start=58167
loop_xfade=24713
lovel=1
lpc=UxmpQdolHcId/+ZBl3ZhwJ2FgMD8I/Y/Xm6fQMShIMFynvFAgqOAQB/rUsA2ZyHA481wQIRJr74l7bE/MDEjP3Z9wj9vy2HAJHsaQFeoG0AL/BO/mEOqP8v9w780LW49
lpc_rms=-12.19
pitch_keycenter=a#5
sample=Clarinet_trill_semitone_FF_A#5.opus
</region>

<region>
hikey=c4
hivel=127
lokey=b3
loop_end=270598
loop_mode=loop_continuous
loop_start=60048
loop_xfade=25512
lovel=1
lpc=AWi2QTZvc8JyBmpC9we7wfzr90Dbm8rASGGjv3ZCnD+UY+pAqp8zwHTQtcCEnjpAbEPFPL9pdL/cHlRAJvUXwDvS1L+U0DFAFvaTPoebMcBDVTNA+uksP120ecBjsARA
lpc_rms=-16.96
pitch_keycenter=c4
sample=Clarinet_trill_semitone_FF_C4.opus
</region>

<region>
hikey=c5
hivel=127
lokey=b4
loop_end=271033
loop_mode=loop_continuous
loop_start=60145
loop_xfade=25553
lovel=1
lpc=XpQoQeAntMHj65dBFYn4wDdHg0AhnJzARBmRQEqKj8A3BIxAqPUEwCc1KD6RquM+17hVv7N7YT5ez4M/KtZevxBKD79PF5w+hKSWP1M91j0AzD+/NKnuPjsYPD6wChG9
lpc_rms=-18.14
pitch_keycenter=c5
sample=Clarinet_trill_semitone_FF_C5.opus
</region>

<region>
hikey=c6
hivel=127
lokey=b5
loop_end=279914
loop_mode=loop_continuous
loop_start=62116
loop_xfade=26391
lovel=1
lpc=r8B+QVEAycHxQZBBGMB1wLzp1D9IIz/AfzHDQKlgbMBG5sdAXmWHwOmhKECMmRBAjGHUPuark78/MNI/0mGMQKfUj8AgGaBASsCAvwKkBT+VOhdAxx8BvyIZp8CjMKRA
lpc_rms=-10.53
pitch_keycenter=c6
sample=Clarinet_trill_semitone_FF_C6.opus
</region>

<region>
hikey=d4
hivel=127
lokey=c#4
loop_end=268436
loop_mode=loop_continuous
loop_start=59568
loop_xfade=25309
lovel=1
lpc=JFXYQd6QisKxhnRCZDeswYIi20AutWY+4HU6wS37lEDD2v9Aa/0JwAeyLsDke1vA6isiQORa3b8OY5NAPShwwNnwIUDxjQe/9S0RQEUuA8G2VutA8XVIP3RPp8B8xidA
lpc_rms=-16.25
pitch_keycenter=d4
sample=Clarinet_trill_semitone_FF_D4.opus
</region>

<region>
hikey=d5
hivel=127
lokey=c#5
loop_end=273326
loop_mode=loop_continuous
loop_start=60654
loop_xfade=25770
lovel=1
lpc=+dbCQCnTUMEd4VFB1xsMwYDSmkCxaUHAJy8iQD+CKcAiR5hAlK2jwBn9OkANsrW/UUGtPyjo3L/QHJo/4OH8vgOYET+jCCM/pQ1av9XwHr2wqOw+4/QkvtJAqb3hhY0+
lpc_rms=-22.49
pitch_keycenter=d5
sample=Clarinet_trill_semitone_FF_D5.opus
</region>

<region>
hikey=C7
hivel=127
lokey=c#6
loop_end=272694
loop_mode=loop_continuous
loop_start=60513
loop_xfade=25710
lovel=1
lpc=1zmwQWKC/sHSRr5B8C9MwaJeVEEkkRPBRFwZQRxyqsAGwRNB2ytFwLUVuj/v7XdACLZdPzqFUEAKop6/pHNoQPqoOT46aJRAlp1pwBTh4ECRgD3BEUDuQIzGWkBLJY2+
lpc_rms=-7.89
pitch_keycenter=D6
sample=Clarinet_trill_semitone_FF_D6.opus
</region>

<region>
hikey=e3
hivel=127
lokey=C#3
loop_end=272051
loop_mode=loop_continuous
loop_start=60371
loop_xfade=25649
lovel=1
lpc=BPWLQS1CLsJbCRZCqRgxwTTbekCmvQfB/52FQAGJtb4n2a1APG2swNNBMD8YHlO/NvOoPyPsHsBJMnNAYwkSvySbGsCWPjFA4tTyv6bjID9hEHo/NkcqwJ4X5T+4RBc9
lpc_rms=-21.21
pitch_keycenter=e3
sample=Clarinet_trill_semitone_FF_E3.opus
</region>

<region>
hikey=e4
hivel=127
lokey=d#4
loop_end=277820
loop_mode=loop_continuous
loop_start=61651
loop_xfade=26193
lovel=1
lpc=txqkQdqvQMKyUBVCfeXqwPAihb+aA3i/iafqv2SntL4exMxAVN0IwKjjfcB3pym+Kv+PQGKQbcC0Gwa/vfwoQAWW474RdwK/7EiZP8ZeSsAuJ2NAgSehP8UAxsCXf3RA
lpc_rms=-17.94
pitch_keycenter=e4
sample=Clarinet_trill_semitone_FF_E4.opus
</region>

<region>
hikey=e5
hivel=127
lokey=d#5
loop_end=275603
loop_mode=loop_continuous
loop_start=61159
loop_xfade=25984
lovel=1
lpc=vAY7Qc4JwsHzOKdB508cwSFyjkA62TzA9c4jQJM/ccB78+lAbKSNwMy/nr8GZQ9ApxnMPsFEG8DPkTZAwJ9gv/LGwD5lQXc/oQ2yv4ZFzz0rP78/hdGJPTrMSsBhVE5A
lpc_rms=-13.69
pitch_keycenter=e5
sample=Clarinet_trill_semitone_FF_E5.opus
</region>

<region>
hikey=f#3
hivel=127
lokey=f3
loop_end=274791
loop_mode=loop_continuous
loop_start=60979
loop_xfade=25908
lovel=1
lpc=aBcpQdAAysGwQLNBcSkTwZZRnkB09o7A0XuBvOFEC7+MQOhA6xSzwIv02b+WrghAjyr4PnLAsr+UAhJAR8sPwA+WAz/Xxzo/bg9uvv2kDL9Wfys/jbK0v1OKzT/V/DK/
lpc_rms=-20.58
pitch_keycenter=f#3
sample=Clarinet_trill_semitone_FF_F#3.opus
</region>

<region>
hikey=f#4
hivel=127
lokey=f4
loop_end=265593
loop_mode=loop_continuous
loop_start=58938
loop_xfade=25040
lovel=1
lpc=7oH8QX21l8K+KX1CFCyrwbC+5UAczOC/Dy4awQ1eG0H9BRm/YzMsvctl2b8Dv8W/E539P+mVjMCBdaVAxvmTv8t6qz8fxte/Nv2EP/vEZcCRNVRAK7zCQH2tWcGj8fRA
lpc_rms=-17.65
pitch_keycenter=f#4
sample=Clarinet_trill_semitone_FF_F#4.opus
</region>

<region>
hikey=f#5
hivel=127
lokey=f5
loop_end=261262
loop_mode=loop_continuous
loop_start=57977
loop_xfade=24632
lovel=1
lpc=IXuEQWWJFsJZVCZCXKLjwVYakkH6oEvBe4wsQajqE8EvyQZBIcGswJZSmUDruQ2/gImYwMfVvED7Sdu/FNYUQLF+dcBCH1pAMqwfwB0G3UDulPjAhwLSQFSqosALmHpA
lpc_rms=-17.57
pitch_keycenter=f#5
sample=Clarinet_trill_semitone_FF_F#5.opus
</region>

<region>
hikey=g#3
hivel=127
lokey=g3
loop_end=268454
loop_mode=loop_continuous
loop_start=59573
loop_xfade=25310
lovel=1
lpc=SfyeQfLqS8KJvDpCxmiOwf9N7kD8yALBvFcVQDUBBMBtaQVBmYmCwJIOQsAZ77c/yfNNP6n+OcDbAwRAVZbUP3gwVz6MczzABpgrP38wF76CPac/U/1pQG6wBcHztohA
lpc_rms=-19.37
pitch_keycenter=g#3
sample=Clarinet_trill_semitone_FF_G#3.opus
</region>

<region>
hikey=g#4
hivel=127
lokey=g4
loop_end=270059
loop_mode=loop_continuous
loop_start=59929
loop_xfade=25462
lovel=1
lpc=C7zUQQf1c8LjwEdC4EKVwbsOW0HZDDnB577ePwCjDMFKuVVBYww6QHO/DsGHVRg/xUW9v7wFrz+twTtANvegP+bDi8AhS9Y/cMPMv9a7pD4TuxtAY6mQQNbeRcEGU/ZA
lpc_rms=-17.09
pitch_keycenter=g#4
sample=Clarinet_trill_semitone_FF_G#4.opus
</region>

<region>
hikey=g#5
hivel=127
lokey=g5
loop_end=271193
loop_mode=loop_continuous
loop_start=60180
loop_xfade=25569
lovel=1
lpc=FhDgQV7PecKBA4ZCSk8uwjjFu0GiAw3BDxu/QEeiCMFx2tpAF1wuQOgK4r81et8+MWV0wOqHEEGvWN/ANPwiQNTkxkD1mc7A9opuQMBRlcDifBBB6E1rwB+Mgj9k0RY/
lpc_rms=-10.18
pitch_keycenter=g#5
sample=Clarinet_trill_semitone_FF_G#5.opus
</region>
</group>